<?xml version="1.0" standalone="no"?>
<svg viewBox="0 0 200 200" xmlns="http://www.w3.org/2000/svg">
  <path fill="#FBD85D" d="M47.2,-76.1C59.7,-65.4,67.3,-49.8,72.4,-34.3C77.6,-18.9,80.2,-3.5,79.5,12.5C78.8,28.4,74.9,45,64.9,55.9C54.9,66.9,38.9,72.2,22.9,75.9C7,79.5,-8.7,81.4,-22.3,76.9C-35.8,72.5,-47.2,61.6,-57,49.7C-66.8,37.8,-74.9,24.9,-79.5,9.9C-84.1,-5.1,-85.1,-22.2,-79.1,-36.5C-73.2,-50.8,-60.3,-62.2,-45.9,-72.2C-31.6,-82.1,-15.8,-90.4,0.8,-91.6C17.3,-92.8,34.7,-86.9,47.2,-76.1Z" transform="translate(100 100)" />
</svg>
