<?xml version="1.0" standalone="no"?>
<svg viewBox="0 0 200 200" xmlns="http://www.w3.org/2000/svg">
  <path fill="#FBD85D" d="M45.4,-69.6C58.5,-62.2,68.7,-49.1,76.3,-34.3C83.9,-19.5,88.9,-3,85.4,11.3C81.9,25.7,69.8,37.8,58,48.9C46.3,60,34.9,70,21.7,73.8C8.5,77.6,-6.4,75.2,-21.6,71.6C-36.8,68,-52.2,63.3,-63.7,53.3C-75.2,43.4,-82.9,28.2,-84.5,12.6C-86,-3,-81.5,-19.1,-75.3,-35.2C-69.2,-51.2,-61.4,-67.3,-48.6,-74.9C-35.7,-82.4,-17.9,-81.5,-0.9,-80.1C16.1,-78.7,32.2,-77,45.4,-69.6Z" transform="translate(100 100)" />
</svg>
