<?xml version="1.0" standalone="no"?>
<svg viewBox="0 0 200 200" xmlns="http://www.w3.org/2000/svg">
  <path fill="#FBD85D" d="M47.7,-72.5C61.6,-65.2,72.6,-51.7,77.8,-36.6C83.1,-21.5,82.6,-4.9,81.2,12.4C79.8,29.7,77.6,47.5,68.5,60.8C59.3,74.2,43.1,83,26.1,87.2C9.1,91.4,-8.7,90.9,-25.7,86.4C-42.7,82,-58.8,73.4,-70.5,60.7C-82.1,47.9,-89.3,30.9,-91.1,13.6C-92.9,-3.8,-89.2,-21.4,-80.2,-34.8C-71.2,-48.2,-57,-57.3,-42.7,-64.5C-28.5,-71.6,-14.2,-76.8,1.3,-78.9C16.9,-80.9,33.7,-79.8,47.7,-72.5Z" transform="translate(100 100)" />
</svg>
