<?xml version="1.0" standalone="no"?>
<svg viewBox="0 0 200 200" xmlns="http://www.w3.org/2000/svg">
  <path fill="#FFAC41" d="M44.8,-73.2C56.4,-62.1,63.3,-47.1,71.5,-31.9C79.6,-16.6,89.1,-1.2,86.2,11.7C83.3,24.7,68,35.1,54.7,43.7C41.5,52.2,30.3,58.8,18,63.4C5.6,68,-8,70.7,-23,70.1C-38,69.4,-54.5,65.4,-63.5,55C-72.4,44.6,-73.9,27.7,-77.2,10.6C-80.4,-6.6,-85.5,-23.9,-81.1,-38.6C-76.8,-53.2,-63.1,-65.1,-48.1,-74.6C-33,-84.2,-16.5,-91.4,0,-91.4C16.5,-91.5,33.1,-84.3,44.8,-73.2Z" transform="translate(100 100)" />
</svg>
